<svg width="1920" height="1080" viewBox="0 0 1920 1080" xmlns="http://www.w3.org/2000/svg"><rect width="1920" height="1080" fill="#ffffff"/><path d="M 0,1080 C 0,1080 0,270 0,270 C 93.32685241481403,219.02315683734702 186.65370482962805,168.046313674694 243,177 C 299.34629517037195,185.953686325306 318.7120330963018,254.83790213857094 388,259 C 457.2879669036982,263.16209786142906 576.4981627851648,202.60207777102224 661,209 C 745.5018372148352,215.39792222897776 795.2953157630388,288.7537867773401 848,313 C 900.7046842369612,337.2462132226599 956.3205741626793,312.38277511961724 1039,317 C 1121.6794258373207,321.61722488038276 1231.4223875862435,355.71511274419095 1300,364 C 1368.5776124137565,372.28488725580905 1395.9898754923474,354.7567739036189 1465,351 C 1534.0101245076526,347.2432260963811 1644.618110444368,357.2577916413334 1738,336 C 1831.381889555632,314.7422083586666 1907.5376827301807,262.2120595310476 1935,246 C 1962.4623172698193,229.7879404689524 1941.2311586349097,249.8939702344762 1920,270 C 1920,270 1920,1080 1920,1080 Z" fill="#0c9255" opacity="0.15"/><path d="M 0,1080 C 0,1080 0,540 0,540 C 56.57889449892937,536.4110867324011 113.15778899785875,532.8221734648022 194,543 C 274.84221100214125,553.1778265351978 379.94773850749436,577.1223928731924 464,584 C 548.0522614925056,590.8776071268076 611.0512569721642,580.6882550424277 670,545 C 728.9487430278358,509.3117449575722 783.8472336038488,448.12458695709637 849,465 C 914.1527663961512,481.87541304290363 989.5598086124403,576.8133971291867 1055,591 C 1120.4401913875597,605.1866028708133 1175.9135319463903,538.6218245261572 1245,491 C 1314.0864680536097,443.3781754738428 1396.7860636019984,414.6993047661847 1476,441 C 1555.2139363980016,467.3006952338153 1630.9422136456155,548.5809564091041 1721,572 C 1811.0577863543845,595.4190435908959 1915.4450818155385,560.9768695973988 1951,546 C 1986.5549181844615,531.0231304026012 1953.2774590922309,535.5115652013005 1920,540 C 1920,540 1920,1080 1920,1080 Z" fill="#0c9255" opacity="0.3"/><path d="M 0,1080 C 0,1080 0,810 0,810 C 84.65748499828175,760.1473604906289 169.3149699965635,710.2947209812577 240,740 C 310.6850300034365,769.7052790187423 367.39760501202784,878.9684765655978 438,875 C 508.60239498797216,871.0315234344022 593.0946099553252,753.8313727563509 654,744 C 714.9053900446748,734.1686272436491 752.2239551666711,831.7060324089985 829,864 C 905.7760448333289,896.2939675910015 1022.0095693779906,863.3444976076555 1106,819 C 1189.9904306220094,774.6555023923445 1241.737767321367,718.9159771603797 1298,727 C 1354.262232678633,735.0840228396203 1415.0393613365409,806.991593750826 1472,845 C 1528.9606386634591,883.008406249174 1582.1047873324694,887.117647836316 1675,854 C 1767.8952126675306,820.882352163684 1900.5414893335803,750.5378149039097 1948,737 C 1995.4585106664197,723.4621850960903 1957.72925533321,766.7310925480451 1920,810 C 1920,810 1920,1080 1920,1080 Z" fill="#0c9255" opacity="0.44999999999999996"/></svg>